<svg width="153" height="178" viewBox="0 0 153 178" fill="none" xmlns="http://www.w3.org/2000/svg">
<g opacity="0.7">
<path d="M85.0762 173.43C97.9232 172.226 110.083 166.812 122.508 163.675C130.953 161.544 142.349 162.053 149.598 157.035" stroke="#E6992F" stroke-width="5" stroke-linecap="round" style="mix-blend-mode:color-dodge"/>
<path d="M142.722 145.929C141.779 149.702 140.274 153.363 139.02 157.035" stroke="#E6992F" stroke-width="2" stroke-linecap="round" style="mix-blend-mode:color-dodge"/>
<path d="M116.808 142.756C113.453 150.391 111.423 158.639 108.875 166.555" stroke="#E6992F" stroke-width="2" stroke-linecap="round" style="mix-blend-mode:color-dodge"/>
<path d="M108.346 145.4C106.068 152.754 105.406 160.584 104.115 168.141" stroke="#E6992F" stroke-width="2" stroke-linecap="round" style="mix-blend-mode:color-dodge"/>
<path d="M103.058 149.631C101.354 154.288 100.199 159.152 98.8266 163.911" stroke="#E6992F" stroke-width="2" stroke-linecap="round" style="mix-blend-mode:color-dodge"/>
<path d="M97.24 159.151L93.538 176.074" stroke="#E6992F" stroke-width="2" stroke-linecap="round" style="mix-blend-mode:color-dodge"/>
<path d="M5.2177 98.3314C4.07677 96.6639 3.74492 95.4299 3.42544 93.2191C1.83276 82.1978 2.62064 70.575 3.39606 59.5481C4.42342 44.9381 5.61994 29.6991 9.50737 15.5055C10.1566 13.1351 10.8602 10.7269 12.0929 8.60085C16.9144 0.285137 12.4502 10.783 17.3816 6.83797" stroke="#E6992F" stroke-width="5" stroke-linecap="round" style="mix-blend-mode:color-dodge"/>
<path d="M8.91974 97.2737C14.2065 76.1265 22.3018 55.9561 32.0722 36.4544C34.1554 32.2963 36.3425 28.1798 38.8005 24.2317C38.8019 24.2296 42.5377 16.3604 45.8227 18.0029C47.7687 18.9759 46.8781 22.2039 46.9979 23.7616" stroke="#E6992F" stroke-width="5" stroke-linecap="round" style="mix-blend-mode:color-dodge"/>
<path d="M44.8825 22.7039C44.622 19.8378 42.0526 17.8478 39.7702 16.475C35.4554 13.8799 30.746 11.8135 26.3135 9.42353C23.4311 7.86934 19.731 5.78855 16.6177 4.66375C5.90875 0.794712 18.2842 5.76066 8.39093 3.13592" stroke="#E6992F" stroke-width="5" stroke-linecap="round" style="mix-blend-mode:color-dodge"/>
<path d="M50.1712 119.486C50.1538 119.659 49.8485 120.514 49.8773 120.25C51.3947 106.377 55.2038 92.1178 59.2794 78.8516C61.87 70.419 64.5573 62.211 69.1221 54.612C71.3478 50.9069 73.8889 47.0763 78.4654 46.2383C84.2794 45.1738 87.1385 51.49 89.3071 55.4935" stroke="#E6992F" stroke-width="5" stroke-linecap="round" style="mix-blend-mode:color-dodge"/>
<path d="M53.8732 119.486C53.5403 120.152 55.1598 118.73 55.7536 118.281C64.6164 111.58 72.8695 104.064 81.1097 96.6273C87.0923 91.2278 93.427 85.9476 99.1792 80.2913C99.8237 79.6575 102.616 76.7743 102.529 76.9712C101.664 78.9178 101.022 80.9642 100.413 82.9944" stroke="#E6992F" stroke-width="5" stroke-linecap="round" style="mix-blend-mode:color-dodge"/>
<path d="M102 79.2923C98.7429 75.6985 96.201 71.7808 93.6555 67.6573C90.0598 61.8327 86.0332 56.6908 81.903 51.2625" stroke="#E6992F" stroke-width="5" stroke-linecap="round" style="mix-blend-mode:color-dodge"/>
<path d="M82.9607 172.901C86.5096 166.986 89.7404 160.991 94.3313 155.772C106.587 141.84 121.598 130.793 135.318 118.428" stroke="#E6992F" stroke-width="5" stroke-linecap="round" style="mix-blend-mode:color-dodge"/>
<path d="M134.789 118.428C136.92 125.353 141.338 131.172 142.487 138.525C142.918 141.282 142.928 144.07 143.516 146.811C143.682 147.589 144.28 148.441 144.309 149.22C144.369 150.848 143.655 153.736 144.72 155.037C145.817 156.377 145.699 156.838 144.309 155.449" stroke="#E6992F" stroke-width="5" stroke-linecap="round" style="mix-blend-mode:color-dodge"/>
<path d="M137.963 129.006L132.674 154.391" stroke="#E6992F" stroke-width="2" stroke-linecap="round" style="mix-blend-mode:color-dodge"/>
<path d="M133.732 131.121C132.353 139.088 130.574 146.997 128.972 154.92" stroke="#E6992F" stroke-width="2" stroke-linecap="round" style="mix-blend-mode:color-dodge"/>
<path d="M128.972 127.948C127.597 133.158 126.597 138.485 125.652 143.784C124.683 149.219 124.661 153.939 124.212 159.151" stroke="#E6992F" stroke-width="2" stroke-linecap="round" style="mix-blend-mode:color-dodge"/>
<path d="M124.212 130.063C120.755 139.941 119.234 150.494 117.337 160.737" stroke="#E6992F" stroke-width="2" stroke-linecap="round" style="mix-blend-mode:color-dodge"/>
<path d="M95.1246 71.3594V84.581" stroke="#E6992F" stroke-width="2" stroke-linecap="round" style="mix-blend-mode:color-dodge"/>
<path d="M85.0761 62.3687L81.903 82.9944" stroke="#E6992F" stroke-width="2" stroke-linecap="round" style="mix-blend-mode:color-dodge"/>
<path d="M79.2587 56.5512V92.5139" stroke="#E6992F" stroke-width="2" stroke-linecap="round" style="mix-blend-mode:color-dodge"/>
<path d="M72.3834 59.7244C70.516 71.2166 70.1901 83.0493 69.2103 94.6294" stroke="#E6992F" stroke-width="2" stroke-linecap="round" style="mix-blend-mode:color-dodge"/>
<path d="M69.2102 65.5419C68.3579 76.196 69.4729 87.1543 69.7391 97.8026" stroke="#E6992F" stroke-width="2" stroke-linecap="round" style="mix-blend-mode:color-dodge"/>
<path d="M64.9793 77.1769V94.6294" stroke="#E6992F" stroke-width="2" stroke-linecap="round" style="mix-blend-mode:color-dodge"/>
<path d="M61.2773 83.5232C60.9271 90.7604 60.2393 97.9833 59.6907 105.207" stroke="#E6992F" stroke-width="2" stroke-linecap="round" style="mix-blend-mode:color-dodge"/>
<path d="M59.6907 95.6871C59.7675 100.451 60.0253 105.207 60.2195 109.966" stroke="#E6992F" stroke-width="2" stroke-linecap="round" style="mix-blend-mode:color-dodge"/>
<path d="M77.1432 78.2346C76.7992 84.4052 76.4484 90.5754 76.0854 96.7448" stroke="#E6992F" stroke-width="2" stroke-linecap="round" style="mix-blend-mode:color-dodge"/>
<path d="M91.4225 65.013L91.9514 87.2253" stroke="#E6992F" stroke-width="2" stroke-linecap="round" style="mix-blend-mode:color-dodge"/>
<path d="M33.2475 15.2998C33.4407 20.5883 33.6161 25.8764 33.7764 31.1657" stroke="#E6992F" stroke-width="2" stroke-linecap="round" style="mix-blend-mode:color-dodge"/>
<path d="M29.5455 13.7132C28.5811 22.9433 29.4566 32.4995 29.5455 41.743" stroke="#E6992F" stroke-width="2" stroke-linecap="round" style="mix-blend-mode:color-dodge"/>
<path d="M23.728 15.8287C22.6877 23.4078 23.6407 31.503 23.728 39.0987" stroke="#E6992F" stroke-width="2" stroke-linecap="round" style="mix-blend-mode:color-dodge"/>
<path d="M20.5548 13.1843C20.2221 23.081 19.2058 32.9318 18.4393 42.8007" stroke="#E6992F" stroke-width="2" stroke-linecap="round" style="mix-blend-mode:color-dodge"/>
<path d="M16.8527 15.8287L15.795 41.743" stroke="#E6992F" stroke-width="2" stroke-linecap="round" style="mix-blend-mode:color-dodge"/>
<path d="M13.1507 20.5884C13.4535 31.1866 13.9848 41.7856 14.7373 52.3203" stroke="#E6992F" stroke-width="2" stroke-linecap="round" style="mix-blend-mode:color-dodge"/>
<path d="M11.0352 33.2812C11.6431 43.1599 12.4059 53.029 13.1507 62.8975" stroke="#E6992F" stroke-width="2" stroke-linecap="round" style="mix-blend-mode:color-dodge"/>
<path d="M9.97748 49.6759C10.0434 57.7883 10.3061 65.8939 10.5063 74.0037" stroke="#E6992F" stroke-width="2" stroke-linecap="round" style="mix-blend-mode:color-dodge"/>
<path d="M8.39092 50.7337C8.00797 60.4349 7.51951 70.1327 7.33319 79.8212" stroke="#E6992F" stroke-width="2" stroke-linecap="round" style="mix-blend-mode:color-dodge"/>
<path d="M7.33319 67.6573V84.0521" stroke="#E6992F" stroke-width="2" stroke-linecap="round" style="mix-blend-mode:color-dodge"/>
<path d="M21.0836 41.743C21.3638 46.5068 21.7822 51.2641 22.1413 56.0223" stroke="#E6992F" stroke-width="2" stroke-linecap="round" style="mix-blend-mode:color-dodge"/>
</g>
</svg>
