<svg width="436" height="245" viewBox="0 0 436 245" fill="none" xmlns="http://www.w3.org/2000/svg">
<path d="M50.05 165.15C49.6686 145.21 48.5705 124.973 50.6369 105.084C51.19 99.7606 52.1258 95.4571 54.4522 91.192" stroke="#B3FF00" stroke-width="6" stroke-linecap="round" style="mix-blend-mode:color-dodge"/>
<path d="M6.02726 100.877C3.56386 104.983 0.381992 107.857 6.66315 101.122C34.3125 71.4734 66.8921 44.3253 101.214 22.81C113.852 14.888 128.043 6.64105 142.889 3.68462C162.243 -0.169484 164.796 12.8012 158.737 28.7286C147.861 57.3168 129.664 84.1102 112.562 109.192C98.3179 130.084 82.882 148.488 65.8981 166.911" stroke="#B3FF00" stroke-width="6" stroke-linecap="round" style="mix-blend-mode:color-dodge"/>
<path d="M151.302 147.541C151.259 148.02 151.276 148.985 150.911 149.351C148.389 151.872 152.079 142.312 152.867 138.834C160.424 105.483 171.502 73.9343 187.401 43.5496C187.76 42.8621 200.113 15.2646 206.917 19.1904C214.502 23.5659 211.719 49.9583 211.564 55.289C210.846 80.0935 207.065 103.706 199.727 127.291" stroke="#B3FF00" stroke-width="6" stroke-linecap="round" style="mix-blend-mode:color-dodge"/>
<path d="M131.932 118.486C133.108 120.838 168.559 99.2794 170.183 98.2356C189.377 85.9023 206.902 71.1012 226.336 59.1532C232.134 55.5891 249.032 43.9519 254.902 54.3107C259.41 62.2648 256.694 74.3667 255.636 82.8277C254.702 90.2965 253.435 97.6038 254.462 105.132C255.925 115.864 258.72 125.981 271.631 121.91C287.797 116.812 295.516 99.6814 300.001 84.6375C303.437 73.1143 312.321 40.4191 290.903 40.4191C283.419 40.4191 276.765 44.7736 271.533 49.7128C264.848 56.0235 273.238 49.851 275.055 47.9519C284.182 38.4115 291.763 26.9901 302.055 18.6034C315.713 7.47488 303.17 34.8523 302.74 36.6038" stroke="#B3FF00" stroke-width="6" stroke-linecap="round" style="mix-blend-mode:color-dodge"/>
<path d="M354.687 125.53C357.44 125.53 356.516 120.29 356.839 117.557C359.409 95.8005 363.348 70.0723 357.622 48.5389C352.42 28.9783 338.647 40.0762 328.909 47.1203C326.323 48.9915 323.848 51.0166 321.23 52.8433C319.024 54.3824 316.807 55.8223 319.567 52.1585C331.998 35.6508 350.877 21.0503 368.872 11.1685C372.704 9.064 381.479 4.32544 381.834 12.4892C382.097 18.539 378.269 20.5626 375.818 25.1579" stroke="#B3FF00" stroke-width="6" stroke-linecap="round" style="mix-blend-mode:color-dodge"/>
<path d="M432.167 90.3115C423.884 91.8785 416.319 98.0356 409.373 102.393C390.391 114.301 371.373 122.366 349.6 127.829C262.493 149.682 174.763 168.657 87.9095 191.564" stroke="#B3FF00" stroke-width="6" stroke-linecap="round" style="mix-blend-mode:color-dodge"/>
<path d="M264.358 238.655C264.104 238.401 264.337 238.645 264.258 237.662C263.625 229.743 262.929 221.827 262.024 213.933C261.417 208.629 260.651 201.778 259.418 196.335C258.173 190.84 258.867 194.412 258.103 194.87" stroke="#B3FF00" stroke-width="5" stroke-linecap="round" style="mix-blend-mode:color-dodge"/>
<path d="M242.465 205.593C240.927 206.747 243.619 201.902 244.525 200.207C250.011 189.946 257.397 180.121 266.542 172.829C270.218 169.897 279.832 164.419 284.413 169.056C286.595 171.264 286.279 174.317 285.878 177.123C284.517 186.651 279.628 195.609 274.981 203.856C272.14 208.898 267.243 216.645 263.812 221.578C263.515 222.004 260.009 227.385 258.351 228.007C257.314 228.396 260.43 227.178 261.528 227.039C267.837 226.237 275.025 227.483 280.566 230.588C285.333 233.26 289.001 237.694 292.505 241.783" stroke="#B3FF00" stroke-width="5" stroke-linecap="round" style="mix-blend-mode:color-dodge"/>
<path d="M298.76 210.508C296.413 217.353 296.837 234.947 307.845 227.188C311.627 224.522 313.301 220.12 314.05 215.695C314.689 211.922 315.86 203.871 311.965 201.274C308.636 199.055 303.422 200.404 300.051 201.771C297.909 202.639 286.993 210.775 293.2 213.189C297.137 214.719 302.805 211.963 306.132 210.384C310.928 208.107 315.442 205.163 319.56 201.82C320.558 201.011 323.161 198.204 322.092 198.916C320.158 200.206 319.328 202.49 317.972 204.253" stroke="#B3FF00" stroke-width="5" stroke-linecap="round" style="mix-blend-mode:color-dodge"/>
<path d="M343.885 191.296C344.553 188.327 343.489 189.229 341.453 191.296C336.186 196.642 333.73 204.874 333.212 212.196C332.795 218.09 336.257 223.827 342.992 221.231C349.725 218.635 354.17 210.729 358.182 205.146" stroke="#B3FF00" stroke-width="5" stroke-linecap="round" style="mix-blend-mode:color-dodge"/>
<path d="M372.033 213.635C371.225 206.767 372.146 199.286 372.182 192.438C372.246 180.232 371.735 168.163 371.139 156" stroke="#B3FF00" stroke-width="5" stroke-linecap="round" style="mix-blend-mode:color-dodge"/>
<path d="M368.458 202.466C368.713 204.12 369.635 204.161 370.568 202.59C374.925 195.258 376.377 186.475 382.234 179.928C388.829 172.557 389.571 184.691 389.358 188.913C389.062 194.791 387.658 200.434 386.926 206.239C386.876 206.633 386.579 207.459 386.975 207.43C388.436 207.323 388.568 204.969 389.457 203.806" stroke="#B3FF00" stroke-width="5" stroke-linecap="round" style="mix-blend-mode:color-dodge"/>
<path d="M399.734 189.509C401.127 181.545 404.868 171.26 412.591 167.418C414.849 166.295 418.819 165.525 420.137 168.51C422.498 173.857 418.117 181.772 415.172 185.935C413.435 188.39 407.603 195.826 403.606 193.803C397.978 190.955 405.647 176.971 407.453 174.169C411.7 167.581 417.408 164.644 422.644 171.762C426.319 176.759 423.945 174.795 427.087 179.357C427.562 180.047 428.077 180.755 428.775 181.219C430.928 182.649 429.779 180.616 431.902 181.02" stroke="#B3FF00" stroke-width="5" stroke-linecap="round" style="mix-blend-mode:color-dodge"/>
</svg>
